<svg xmlns="http://www.w3.org/2000/svg" width="52.882" height="63.03" viewBox="0 0 52.882 63.03"><defs><style>.a{fill:#fff;stroke:#707070;}.b{fill:#14aabb;}.c{fill:red;}.d{font-size:5px;font-family:Inter-Bold, Inter;font-weight:700;}.e{stroke:none;}.f{fill:none;}</style></defs><g transform="translate(-1118.312 -565.036)"><g class="a" transform="translate(1122.253 569)"><ellipse class="e" cx="24" cy="23" rx="24" ry="23"/><ellipse class="f" cx="24" cy="23" rx="23.5" ry="22.5"/></g><path class="b" d="M131.583,192.285c-1.2-1.213-2.356-2.391-3.523-3.559q-7.352-7.359-14.707-14.713A27.034,27.034,0,0,1,105.69,160a24.357,24.357,0,0,1,4.864-20.291,25.293,25.293,0,0,1,16.476-10.045c9.769-1.574,18.064,1.4,24.633,8.809a24.222,24.222,0,0,1,6.36,17.731,26.045,26.045,0,0,1-7.735,17.376c-6.05,6.185-12.217,12.256-18.334,18.375C131.865,192.043,131.766,192.122,131.583,192.285Zm.08-56.933a20.353,20.353,0,1,0,20.3,19.252A20.279,20.279,0,0,0,131.663,135.352Z" transform="translate(1013.14 435.781)"/><g transform="translate(1117.065 565.01)"><path class="c" d="M158.771,127.051c0-.749,0-1.5,0-2.247a.829.829,0,0,1,.9-.917q1.483-.011,2.965-.011c.7,0,1,.315,1,1.008,0,1.468.007,2.936-.006,4.4,0,.29.09.375.376.372,1.458-.012,2.916-.006,4.374-.006.74,0,1.046.321,1.039,1.061-.009.968-.006,1.935,0,2.9a.858.858,0,0,1-.953.962c-1.488,0-2.976.009-4.463,0-.293,0-.373.093-.37.377.011,1.478.005,2.955,0,4.433a.873.873,0,0,1-.969.989q-1.482.007-2.965,0a.9.9,0,0,1-.991-1.007c.014-1.466.028-2.932.06-4.4.007-.307-.094-.392-.393-.389-1.468.013-2.936.007-4.4.005-.689,0-.979-.291-.98-.98,0-1.038,0-2.077.008-3.115a.75.75,0,0,1,.8-.809c.459-.01.919,0,1.378,0,1.118,0,2.235-.011,3.353-.007.225,0,.233-.12.232-.287,0-.779,0-1.557,0-2.336Z" transform="translate(-133.31 -108.863)"/><text class="d" transform="translate(20.188 37.99)"><tspan x="0" y="0">CLINIC</tspan></text></g></g></svg>