<svg xmlns="http://www.w3.org/2000/svg" width="35.79" height="35.949" viewBox="0 0 35.79 35.949">
  <g id="Group_2024" data-name="Group 2024" transform="translate(-4.408 -5.964)">
    <g id="Group_2025" data-name="Group 2025" transform="translate(0 0)">
      <path id="Path_2013" data-name="Path 2013" d="M165.573,130.793c0-1.632-.006-3.263,0-4.894a1.807,1.807,0,0,1,1.969-2q3.23-.024,6.46-.024c1.515,0,2.185.685,2.186,2.2,0,3.2.015,6.4-.012,9.593-.005.631.2.817.819.811,3.176-.027,6.352-.012,9.528-.013,1.612,0,2.279.7,2.264,2.31-.02,2.108-.012,4.216,0,6.324a1.869,1.869,0,0,1-2.075,2.1c-3.241.008-6.482.019-9.723-.01-.638-.006-.812.2-.807.821.024,3.219.011,6.438,0,9.658a1.9,1.9,0,0,1-2.112,2.155q-3.229.016-6.459.007a1.955,1.955,0,0,1-2.16-2.194c.031-3.194.061-6.388.13-9.581.015-.669-.205-.854-.856-.848-3.2.028-6.4.016-9.593.012-1.5,0-2.133-.634-2.134-2.135,0-2.262,0-4.525.017-6.787a1.633,1.633,0,0,1,1.745-1.762c1-.022,2,0,3-.006,2.435-.006,4.87-.024,7.3-.015.489,0,.508-.262.506-.626-.008-1.7,0-3.393,0-5.09Z" transform="translate(-148.59 -117.913)" fill="#fff"/>
    </g>
  </g>
</svg>
