<svg xmlns="http://www.w3.org/2000/svg" width="47.667" height="54.329" viewBox="0 0 47.667 54.329">
  <path id="Path_2138" data-name="Path 2138" d="M-131-27.011c.084-.5.143-1,.257-1.495a9.2,9.2,0,0,1,3.053-4.866,20.73,20.73,0,0,1,6.153-3.552,58.2,58.2,0,0,1,7.662-2.347c.088-.022.174-.047.3-.081-.073-.085-.127-.153-.186-.216a20.02,20.02,0,0,1-5.3-10.313,18.527,18.527,0,0,1-.174-4.418,21.455,21.455,0,0,1,.76-4.829,10.576,10.576,0,0,1,3.958-5.94,11.673,11.673,0,0,1,4.9-1.94,17.51,17.51,0,0,1,5.679-.135,10.35,10.35,0,0,1,8.133,6.039,17.173,17.173,0,0,1,1.558,5.795,21.415,21.415,0,0,1,.062,4.533,17.778,17.778,0,0,1-1.807,6.037,19.828,19.828,0,0,1-3.95,5.442c-.039.038-.073.08-.122.134.778.25,1.537.5,2.3.738a40.628,40.628,0,0,1,8.635,3.6,14.166,14.166,0,0,1,3.924,3.251,8,8,0,0,1,1.829,4.405.843.843,0,0,0,.045.157v1.386c-.035.274-.072.547-.105.821a10.431,10.431,0,0,1-2.8,6.046,15,15,0,0,1-5.8,3.669,35.653,35.653,0,0,1-10.51,1.992c-.616.038-1.232.073-1.849.109h-3.769c-.09-.014-.18-.034-.271-.04-1.206-.078-2.414-.129-3.618-.234a38.528,38.528,0,0,1-8.16-1.555,19.837,19.837,0,0,1-6.876-3.512,10.193,10.193,0,0,1-3.663-5.775c-.113-.519-.167-1.051-.247-1.577Zm17.633-10.382c-.564.106-1.063.193-1.559.295a27.886,27.886,0,0,0-8.135,2.858,12.444,12.444,0,0,0-3.977,3.3A7.225,7.225,0,0,0-128.5-25.1a7.3,7.3,0,0,0,2.342,4.022,16.34,16.34,0,0,0,5.482,3.266,37.437,37.437,0,0,0,12.234,2.323,53.763,53.763,0,0,0,8.737-.384,31.7,31.7,0,0,0,6.127-1.335,15.008,15.008,0,0,0,4.98-2.646,7.9,7.9,0,0,0,2.157-9.5,10.857,10.857,0,0,0-3.811-4.233,23.5,23.5,0,0,0-8.089-3.4c-.417-.1-.837-.181-1.266-.272a3.087,3.087,0,0,1,.091.5c.009.959.037,1.919,0,2.876a23.172,23.172,0,0,1-.976,5.77,39.145,39.145,0,0,1-4.572,9.827c-.544.856-1.134,1.682-1.75,2.593A27.774,27.774,0,0,1-113.367-37.392Zm17.459-14.6a4.711,4.711,0,0,0-.59-2.474,4.47,4.47,0,0,0-2.864-2.02c-.667-.182-1.352-.3-2.017-.482a7.591,7.591,0,0,1-3.16-1.873,9.735,9.735,0,0,0-1.162-.979,2.112,2.112,0,0,0-2.558.057,12.319,12.319,0,0,0-1.016.856,9.172,9.172,0,0,1-3.23,1.988,12.518,12.518,0,0,1-2.951.588,1.673,1.673,0,0,0-1.728,1.8,7.9,7.9,0,0,0,.132,1.513c.2,1.145.45,2.28.646,3.425.11.644.078,1.319.237,1.948a12.993,12.993,0,0,0,6.387,8.451,5.926,5.926,0,0,0,5.685.215,10.828,10.828,0,0,0,3.379-2.511,19.832,19.832,0,0,0,3.924-6.5A11.421,11.421,0,0,0-95.908-51.991ZM-113.284-37.4l-.019.1c.227.114.452.233.682.341a1.365,1.365,0,0,1,.837,1.32c0,.351-.012.7-.006,1.053a43.451,43.451,0,0,0,.938,7.6c.084.425.177.848.265,1.273a.242.242,0,0,0,.1-.154q.737-3.024,1.471-6.048a1.315,1.315,0,0,0-.134-.966,7.4,7.4,0,0,1-.466-.815,4.2,4.2,0,0,1-.258-1.032c-.032-.277.158-.389.415-.269.214.1.4.262.609.375a1.045,1.045,0,0,0,.444.159c.905.015,1.81.008,2.716.007a1.418,1.418,0,0,0,1.015-.237c.27-.224.533-.093.628.25a1.228,1.228,0,0,1-.351,1.363c-.216.188-.443.363-.658.551a.756.756,0,0,0-.255.819c.484,1.894.956,3.791,1.44,5.684.126.493.278.98.437,1.54.046-.154.072-.233.093-.312.344-1.282.7-2.562,1.029-3.848.537-2.11,1.028-4.229,1.384-6.38.132-.795-.076-1.649.432-2.39-.431-.061-.832-.133-1.235-.168a.825.825,0,0,0-.433.1c-.577.308-1.131.663-1.718.947a6.164,6.164,0,0,1-4.684.339,11.029,11.029,0,0,1-2.759-1.325c-.075-.049-.167-.12-.242-.111C-112.138-37.564-112.711-37.48-113.284-37.4Z" transform="translate(131 67.317)" fill="#fff"/>
</svg>
