<svg xmlns="http://www.w3.org/2000/svg" width="16.726" height="15.977" viewBox="0 0 16.726 15.977">
  <path id="Icon_awesome-star-half-alt" data-name="Icon awesome-star-half-alt" d="M15.869,5.352,11.3,4.687,9.261.556a1,1,0,0,0-1.795,0L5.424,4.687.856,5.351A1,1,0,0,0,.3,7.055l3.3,3.214-.782,4.54a1,1,0,0,0,.986,1.169.986.986,0,0,0,.464-.117l4.086-2.143,4.086,2.144A1,1,0,0,0,13.9,14.809l-.781-4.54,3.3-3.213a1,1,0,0,0-.553-1.7ZM12.07,9.2l-.565.55.134.776.609,3.54L9.061,12.391l-.7-.366v-9.9L9.955,5.349l.349.706.78.114,3.565.519Z" transform="translate(0)" fill="#ffef10"/>
</svg>
