<svg xmlns="http://www.w3.org/2000/svg" width="52.882" height="63.03" viewBox="0 0 52.882 63.03"><defs><style>.a{fill:#fff;stroke:#707070;}.b{fill:#14aabb;}.c{fill:red;}.d{stroke:none;}.e{fill:none;}</style></defs><g class="a" transform="translate(3.594 4.013)"><ellipse class="d" cx="24" cy="23" rx="24" ry="23"/><ellipse class="e" cx="24" cy="23" rx="23.5" ry="22.5"/></g><path class="b" d="M131.583,192.285c-1.2-1.213-2.356-2.391-3.523-3.559q-7.352-7.359-14.707-14.713A27.034,27.034,0,0,1,105.69,160a24.357,24.357,0,0,1,4.864-20.291,25.293,25.293,0,0,1,16.476-10.045c9.769-1.574,18.064,1.4,24.633,8.809a24.222,24.222,0,0,1,6.36,17.731,26.045,26.045,0,0,1-7.735,17.376c-6.05,6.185-12.217,12.256-18.334,18.375C131.865,192.043,131.766,192.122,131.583,192.285Zm.08-56.933a20.353,20.353,0,1,0,20.3,19.252A20.279,20.279,0,0,0,131.663,135.352Z" transform="translate(-105.172 -129.255)"/><g transform="translate(14.926 15.927)"><path class="c" d="M-152.723,171.5a5.742,5.742,0,0,1,5.667,4.625,5.561,5.561,0,0,1-1.542,5.248q-5.683,5.721-11.4,11.407a5.633,5.633,0,0,1-3.16,1.581,5.766,5.766,0,0,1-6.5-4.227,5.563,5.563,0,0,1,1.473-5.569c3.781-3.821,7.594-7.611,11.4-11.409a5.48,5.48,0,0,1,3.3-1.59C-153.236,171.535-152.979,171.522-152.723,171.5Zm-9.287,8.9c-.023.019-.059.046-.09.077q-2.542,2.54-5.082,5.083a4.171,4.171,0,0,0-1.232,2.63,4.229,4.229,0,0,0,1.08,3.349,4.279,4.279,0,0,0,4.14,1.381,4.354,4.354,0,0,0,2.356-1.3q2.422-2.436,4.855-4.859c.058-.058.113-.119.156-.165Zm3.232.237a2.448,2.448,0,0,1,.157-.191c1.222-1.223,2.428-2.462,3.672-3.662a4.137,4.137,0,0,1,4.385-1.009.486.486,0,0,0,.611-.144c.121-.137.121-.212,0-.332a4.333,4.333,0,0,0-3.543-1.225,4.3,4.3,0,0,0-2.707,1.325c-1.254,1.266-2.519,2.521-3.779,3.782-.047.047-.089.1-.123.136Z" transform="translate(169.87 -171.501)"/></g></svg>