<svg xmlns="http://www.w3.org/2000/svg" width="18.627" height="18.62" viewBox="0 0 18.627 18.62">
  <path id="Path_2022" data-name="Path 2022" d="M-155.95,171.5a4.661,4.661,0,0,1,4.6,3.755,4.514,4.514,0,0,1-1.252,4.26q-4.613,4.645-9.256,9.26a4.573,4.573,0,0,1-2.565,1.283,4.681,4.681,0,0,1-5.276-3.432,4.516,4.516,0,0,1,1.2-4.521c3.07-3.1,6.165-6.179,9.254-9.262a4.449,4.449,0,0,1,2.676-1.291C-156.366,171.528-156.157,171.518-155.95,171.5Zm-7.54,7.226c-.018.016-.048.037-.073.062q-2.063,2.062-4.125,4.126a3.386,3.386,0,0,0-1,2.135,3.434,3.434,0,0,0,.876,2.719,3.474,3.474,0,0,0,3.361,1.121,3.535,3.535,0,0,0,1.913-1.058q1.966-1.977,3.941-3.945c.047-.047.092-.1.127-.134Zm2.624.192a1.983,1.983,0,0,1,.128-.155c.992-.993,1.971-2,2.981-2.973a3.358,3.358,0,0,1,3.56-.819.4.4,0,0,0,.5-.117c.1-.111.1-.172,0-.269a3.518,3.518,0,0,0-2.877-.995,3.491,3.491,0,0,0-2.2,1.076c-1.018,1.028-2.045,2.047-3.068,3.07-.038.038-.072.079-.1.11Z" transform="translate(169.87 -171.501)" fill="white"/>
</svg>