<svg xmlns="http://www.w3.org/2000/svg" width="50.433" height="50.415" viewBox="0 0 50.433 50.415">
  <g id="Group_2086" data-name="Group 2086" transform="translate(0 0)">
    <g id="Group_2023" data-name="Group 2023" transform="translate(0 0)">
      <path id="Path_2010" data-name="Path 2010" d="M-132.181,171.5a12.621,12.621,0,0,1,12.456,10.167,12.222,12.222,0,0,1-3.39,11.535q-12.491,12.575-25.061,25.073a12.381,12.381,0,0,1-6.946,3.475,12.674,12.674,0,0,1-14.285-9.292,12.227,12.227,0,0,1,3.238-12.241c8.312-8.4,16.692-16.73,25.056-25.077a12.046,12.046,0,0,1,7.246-3.5C-133.307,171.576-132.743,171.547-132.181,171.5Zm-20.414,19.564c-.05.042-.129.1-.2.169q-5.587,5.584-11.17,11.172a9.168,9.168,0,0,0-2.709,5.781,9.3,9.3,0,0,0,2.373,7.361,9.406,9.406,0,0,0,9.1,3.036,9.571,9.571,0,0,0,5.179-2.865q5.323-5.354,10.672-10.681c.128-.128.248-.262.344-.363Zm7.1.521a5.364,5.364,0,0,1,.345-.419c2.686-2.689,5.338-5.412,8.072-8.05a9.093,9.093,0,0,1,9.638-2.218,1.068,1.068,0,0,0,1.344-.316c.266-.3.266-.466-.008-.729a9.525,9.525,0,0,0-7.789-2.694,9.453,9.453,0,0,0-5.95,2.913c-2.757,2.783-5.537,5.542-8.306,8.312-.1.1-.2.215-.27.3Z" transform="translate(169.87 -171.501)" fill="#fff"/>
    </g>
  </g>
</svg>
