<svg xmlns="http://www.w3.org/2000/svg" width="20.175" height="23.057" viewBox="0 0 20.175 23.057">
  <path id="Icon_awesome-calendar-alt" data-name="Icon awesome-calendar-alt" d="M0,20.9a2.162,2.162,0,0,0,2.162,2.162H18.013A2.162,2.162,0,0,0,20.175,20.9V8.646H0Zm14.41-8.826a.542.542,0,0,1,.54-.54h1.8a.542.542,0,0,1,.54.54v1.8a.542.542,0,0,1-.54.54h-1.8a.542.542,0,0,1-.54-.54Zm0,5.764a.542.542,0,0,1,.54-.54h1.8a.542.542,0,0,1,.54.54v1.8a.542.542,0,0,1-.54.54h-1.8a.542.542,0,0,1-.54-.54ZM8.646,12.069a.542.542,0,0,1,.54-.54h1.8a.542.542,0,0,1,.54.54v1.8a.542.542,0,0,1-.54.54h-1.8a.542.542,0,0,1-.54-.54Zm0,5.764a.542.542,0,0,1,.54-.54h1.8a.542.542,0,0,1,.54.54v1.8a.542.542,0,0,1-.54.54h-1.8a.542.542,0,0,1-.54-.54ZM2.882,12.069a.542.542,0,0,1,.54-.54h1.8a.542.542,0,0,1,.54.54v1.8a.542.542,0,0,1-.54.54h-1.8a.542.542,0,0,1-.54-.54Zm0,5.764a.542.542,0,0,1,.54-.54h1.8a.542.542,0,0,1,.54.54v1.8a.542.542,0,0,1-.54.54h-1.8a.542.542,0,0,1-.54-.54ZM18.013,2.882H15.852V.721A.723.723,0,0,0,15.131,0H13.69a.723.723,0,0,0-.721.721V2.882H7.205V.721A.723.723,0,0,0,6.485,0H5.044a.723.723,0,0,0-.721.721V2.882H2.162A2.162,2.162,0,0,0,0,5.044V7.205H20.175V5.044A2.162,2.162,0,0,0,18.013,2.882Z" fill="#14aabb"/>
</svg>
